<?xml version="1.0" encoding="UTF-8" ?>
<!DOCTYPE svg PUBLIC "-//W3C//DTD SVG 1.1//EN" "http://www.w3.org/Graphics/SVG/1.1/DTD/svg11.dtd">
<svg width="512pt" height="512pt" viewBox="0 0 512 512" version="1.1" xmlns="http://www.w3.org/2000/svg">
<g id="#000000ff">
<path fill="#000000" opacity="1.00" d=" M 251.42 0.00 L 259.64 0.00 C 297.66 0.67 335.60 9.49 369.65 26.53 C 422.65 52.76 466.04 97.91 490.01 151.99 C 504.13 183.47 511.36 217.88 512.00 252.35 L 512.00 259.66 C 511.29 301.84 500.39 343.90 479.65 380.69 C 460.48 414.96 433.32 444.73 400.97 467.00 C 359.75 495.72 309.80 511.26 259.62 512.00 L 251.47 512.00 C 204.72 511.07 158.15 497.50 118.78 472.14 C 93.58 456.12 71.24 435.63 53.02 411.97 C 27.85 379.48 10.78 340.78 3.85 300.26 C 1.47 286.85 0.37 273.24 0.00 259.64 L 0.00 252.36 C 0.73 206.02 13.92 159.83 38.71 120.60 C 59.34 87.56 87.59 59.32 120.63 38.69 C 159.59 14.08 205.41 0.93 251.42 0.00 M 183.14 42.12 C 138.17 57.33 98.43 87.32 71.19 126.16 C 41.83 167.59 26.98 219.26 30.64 269.97 C 32.18 297.43 39.00 324.60 50.48 349.60 C 59.34 369.28 71.40 387.38 85.25 403.89 C 87.03 397.84 88.55 391.71 90.89 385.84 C 107.72 338.88 145.85 300.26 192.40 282.47 C 193.48 282.11 196.27 281.09 194.22 279.87 C 174.49 265.93 159.48 245.35 152.74 222.11 C 145.22 196.59 147.40 168.20 159.36 144.35 C 172.96 116.35 199.31 94.86 229.56 87.39 C 260.37 79.39 294.61 86.07 320.04 105.27 C 345.54 123.95 362.10 154.39 363.48 186.02 C 364.95 212.59 356.15 239.62 339.06 260.05 C 332.72 268.23 324.62 274.78 316.43 281.01 C 329.84 286.01 342.68 292.53 354.50 300.60 C 390.22 324.59 416.33 362.19 426.71 403.91 C 438.14 390.22 448.52 375.58 456.60 359.65 C 479.96 315.02 487.40 262.34 477.84 212.91 C 467.70 159.89 437.61 111.09 395.00 77.99 C 363.92 53.53 326.25 37.55 287.06 32.17 C 252.28 27.37 216.35 30.66 183.14 42.12 M 245.54 114.77 C 222.35 117.76 201.02 132.01 189.19 152.14 C 179.50 168.30 176.10 188.05 179.73 206.54 C 182.99 223.60 192.23 239.43 205.44 250.71 C 217.85 261.37 233.69 268.04 250.03 269.20 C 265.37 270.42 281.04 266.95 294.39 259.27 C 310.41 250.22 322.97 235.27 329.14 217.93 C 335.38 200.66 335.18 181.16 328.57 164.03 C 322.52 148.11 311.05 134.35 296.51 125.49 C 281.44 116.14 263.08 112.36 245.54 114.77 M 212.17 307.32 C 185.78 315.68 161.86 331.75 144.18 353.06 C 125.94 374.46 114.69 401.34 111.04 429.14 C 149.22 461.10 198.12 480.26 247.97 481.64 C 294.58 483.57 341.65 470.26 380.44 444.35 C 387.69 439.93 394.13 434.34 400.91 429.25 C 398.01 406.37 389.99 384.09 377.01 364.99 C 361.79 342.27 340.01 323.99 315.01 312.91 C 282.93 298.66 245.61 296.59 212.17 307.32 Z" />
</g>
</svg>
